<?xml version="1.0" encoding="UTF-8"?>
<svg version="1.1" xmlns="http://www.w3.org/2000/svg" width="512" height="305">
<path d="M0 0 C17.16 0 34.32 0 52 0 C52 10.23 52 20.46 52 31 C56.14393311 30.98428955 56.14393311 30.98428955 60.37158203 30.96826172 C69.5875447 30.9348462 78.80351032 30.91292156 88.0195179 30.89637566 C93.5970294 30.88602031 99.17447788 30.87201552 104.75195312 30.84912109 C110.15311155 30.82709385 115.55421006 30.81536972 120.95541 30.81024551 C122.99705827 30.80660254 125.03870395 30.79949244 127.08032608 30.78853989 C137.70623193 30.73389959 148.23397086 30.94435061 158.82373047 31.87939453 C159.70297747 31.95605787 160.58222446 32.03272121 161.48811531 32.11170769 C188.29324417 34.73766702 212.98031554 47.31989405 233 65 C233.97453125 65.84175781 234.9490625 66.68351562 235.953125 67.55078125 C260.62323836 89.19464115 277.92937759 119.23105564 282 152 C282.9010894 169.85151322 282.96960418 187.71459777 278 205 C277.81808105 205.66016113 277.63616211 206.32032227 277.44873047 207.00048828 C268.02867049 240.46316784 244.87698094 270.01567047 214.8359375 287.46875 C184.01862319 304.69871963 145.46234743 311.03427698 111.08300781 301.59423828 C110.39561523 301.39813965 109.70822266 301.20204102 109 301 C108.33838867 300.81808105 107.67677734 300.63616211 106.99511719 300.44873047 C93.848061 296.74677882 81.47880807 290.73881886 69.75 283.8125 C49.03762657 271.70848384 25.51014149 268.90591443 2.3046875 274.96484375 C-6.41249637 277.66735274 -14.11925261 281.50540344 -22.06884766 285.93847656 C-54.98066814 304.02957586 -93.22690478 311.49058999 -130 301 C-130.66161133 300.81808105 -131.32322266 300.63616211 -132.00488281 300.44873047 C-165.46531922 291.02693169 -195.01657611 267.87542211 -212.46875 237.8359375 C-224.08779884 217.05186307 -230.17623891 195.10335083 -230.24023438 171.25170898 C-230.24983701 169.09903754 -230.28087185 166.94736592 -230.3125 164.79492188 C-230.5548161 133.09125568 -216.90270423 101.76728466 -195 79 C-193.84766574 77.65136101 -192.70151891 76.29740342 -191.5625 74.9375 C-174.98897256 56.10907087 -152.7054425 43.40795078 -129 36 C-128.0203125 35.68160156 -127.040625 35.36320312 -126.03125 35.03515625 C-108.81662416 30.06369103 -89.82153125 30.70945875 -72.0703125 30.8046875 C-69.97183367 30.80843188 -67.87335305 30.81127208 -65.77487183 30.81326294 C-60.33352568 30.82078748 -54.89229157 30.84033543 -49.45098877 30.8626709 C-43.86577875 30.8833747 -38.28055008 30.89231632 -32.6953125 30.90234375 C-21.79681862 30.92359555 -10.89843629 30.95868193 0 31 C0 20.77 0 10.54 0 0 Z M18 15 C18 20.28 18 25.56 18 31 C23.28 31 28.56 31 34 31 C34 25.72 34 20.44 34 15 C28.72 15 23.44 15 18 15 Z M-183.20068359 92.98925781 C-187.66131053 97.97402354 -191.44053758 103.34749616 -195 109 C-195.36029297 109.56396484 -195.72058594 110.12792969 -196.09179688 110.70898438 C-211.57491337 135.26358324 -216.42829929 164.81404639 -210.375 193.3125 C-205.01201437 215.99040736 -193.96258543 235.07342184 -178 252 C-177.38769531 252.67675781 -176.77539062 253.35351562 -176.14453125 254.05078125 C-157.15090209 274.2593547 -128.10829837 286.18299389 -100.69921875 287.31640625 C-86.70787346 287.66708651 -73.49041849 286.8223358 -60 283 C-59.34660645 282.81759766 -58.69321289 282.63519531 -58.02001953 282.44726562 C-47.15222189 279.24837864 -37.39844545 273.64600388 -27.57373047 268.11376953 C-1.27720703 253.44086681 28.18934546 250.03532742 57.25 258 C66.36101516 260.67921899 74.44702041 265.1584606 82.71728516 269.7421875 C93.49401892 275.68034069 104.1163567 280.65178033 116 284 C117.07378906 284.3196875 118.14757812 284.639375 119.25390625 284.96875 C149.29689678 292.4882007 181.95500385 285.70374671 208.23583984 270.09619141 C235.80158148 252.96774138 253.23659093 226.09869202 262.03515625 195.38671875 C268.64358722 166.77067581 263.94188836 136.26540019 248.68359375 111.25317383 C244.31387234 104.41977455 239.27712021 98.14995188 234 92 C233.46632813 91.34386719 232.93265625 90.68773437 232.3828125 90.01171875 C228.66792585 85.48357314 224.5270131 81.70663181 220 78 C219.06285156 77.22527344 218.12570312 76.45054688 217.16015625 75.65234375 C188.63669126 52.59302327 158.21587837 48.84554577 122.58325195 48.85473633 C120.24898729 48.85173878 117.91472313 48.84833489 115.58045959 48.84455872 C109.2785504 48.83577553 102.9766548 48.83338302 96.67474008 48.83274293 C92.72713536 48.83202923 88.77953403 48.8298889 84.83193016 48.82724571 C71.74085698 48.81848655 58.64979227 48.81382366 45.55871616 48.81457619 C44.85557273 48.81461614 44.15242931 48.8146561 43.42797852 48.81469727 C42.3719503 48.81475859 42.3719503 48.81475859 41.29458817 48.81482115 C29.89561969 48.81522725 18.49668429 48.80566212 7.09772537 48.7915589 C-4.65497739 48.77713471 -16.40766407 48.770292 -28.16037589 48.77115268 C-34.73921524 48.77148254 -41.31802411 48.76862907 -47.89685631 48.75797462 C-54.08989444 48.74821745 -60.28285979 48.74826613 -66.47590065 48.75549126 C-68.73315666 48.75652767 -70.9904174 48.75423119 -73.24766541 48.7481308 C-117.62535886 48.63607821 -152.19727969 59.80757395 -183.20068359 92.98925781 Z " fill="white" transform="translate(230,0)"/>
<path d="M0 0 C0.84775497 -0.01268417 1.69550995 -0.02536835 2.56895447 -0.03843689 C3.4814949 -0.03550125 4.39403534 -0.03256561 5.33422852 -0.02954102 C6.27492691 -0.03478287 7.21562531 -0.04002472 8.18482971 -0.04542542 C10.1744793 -0.05184933 12.16416684 -0.05050385 14.15380859 -0.04199219 C17.19836103 -0.03348853 20.24103371 -0.06222812 23.28540039 -0.09399414 C25.21834254 -0.09560639 27.15128801 -0.09502818 29.08422852 -0.09204102 C29.99474472 -0.10327499 30.90526093 -0.11450897 31.84336853 -0.12608337 C38.14005097 -0.05666467 38.14005097 -0.05666467 41.31884766 2.24755859 C44.16115997 6.45505728 43.9068724 10.47283206 43.87329102 15.35327148 C43.87187607 16.12588821 43.87046112 16.89850494 43.8690033 17.6945343 C43.86340943 20.16024663 43.85085809 22.62586789 43.83813477 25.09155273 C43.83311897 26.76407746 43.8285562 28.43660362 43.82446289 30.10913086 C43.81344201 34.2074732 43.79618161 38.30574753 43.77563477 42.40405273 C45.3267395 42.38048706 45.3267395 42.38048706 46.90917969 42.35644531 C50.75757004 42.30201219 54.60592656 42.26765425 58.45458984 42.23925781 C60.11805958 42.22420159 61.78148982 42.2037521 63.44482422 42.17773438 C65.84034998 42.14121066 68.23534943 42.12429491 70.63110352 42.11108398 C71.74076729 42.0878582 71.74076729 42.0878582 72.87284851 42.06416321 C77.38363093 42.06270378 80.17040809 42.66654301 83.77563477 45.40405273 C86.13117288 47.75959085 86.03266264 48.21439928 86.06616211 51.40722656 C86.07892181 52.23180862 86.09168152 53.05639069 86.10482788 53.90596008 C86.10705353 54.79865097 86.10927917 55.69134186 86.11157227 56.61108398 C86.12155746 57.98740242 86.12155746 57.98740242 86.13174438 59.39152527 C86.14188208 61.33586621 86.14656106 63.28024203 86.14624023 65.22460938 C86.1506024 68.19451679 86.18687917 71.16292518 86.22485352 74.13256836 C86.2307237 76.02123515 86.23469174 77.90990901 86.23657227 79.79858398 C86.2509433 80.68520218 86.26531433 81.57182037 86.28012085 82.48530579 C86.24999835 86.56823578 86.09698247 88.85525649 83.99682617 92.44189453 C79.77071026 96.17516487 75.36685452 95.54039271 69.94750977 95.50170898 C69.19850403 95.50029404 68.44949829 95.49887909 67.67779541 95.49742126 C65.29370064 95.49183932 62.90970098 95.47929018 60.52563477 95.46655273 C58.90584446 95.4615354 57.28605267 95.4569729 55.66625977 95.45288086 C51.70268165 95.44187581 47.73917431 95.42462364 43.77563477 95.40405273 C43.79134521 96.43812256 43.80705566 97.47219238 43.82324219 98.53759766 C43.87767531 102.38598801 43.91203325 106.23434453 43.94042969 110.08300781 C43.95548591 111.74647755 43.9759354 113.40990779 44.00195312 115.07324219 C44.03847684 117.46876795 44.05539259 119.8637674 44.06860352 122.25952148 C44.08408737 122.99929733 44.09957123 123.73907318 44.11552429 124.50126648 C44.11697909 128.99771552 43.57954234 131.84964774 40.77563477 135.40405273 C37.75164939 137.42004299 37.14402974 137.65797029 33.75073242 137.69458008 C32.94624664 137.70733978 32.14176086 137.72009949 31.31289673 137.73324585 C30.44724091 137.7354715 29.58158508 137.73769714 28.68969727 137.73999023 C27.79576263 137.74664703 26.901828 137.75330383 25.98080444 137.76016235 C24.08951881 137.77028743 22.19819747 137.77497942 20.30688477 137.7746582 C17.41826211 137.77902608 14.53117401 137.81533169 11.64282227 137.85327148 C9.80428582 137.85914079 7.96574212 137.86310942 6.12719727 137.86499023 C5.2655899 137.87936127 4.40398254 137.8937323 3.51626587 137.90853882 C-0.50787426 137.87799876 -2.71248804 137.70535644 -6.24633789 135.62524414 C-10.00251273 131.40731292 -9.36074961 127.00149257 -9.32202148 121.57592773 C-9.32060654 120.826922 -9.31919159 120.07791626 -9.31773376 119.30621338 C-9.31215182 116.92211861 -9.29960268 114.53811895 -9.28686523 112.15405273 C-9.2818479 110.53426243 -9.2772854 108.91447064 -9.27319336 107.29467773 C-9.26218831 103.33109962 -9.24493614 99.36759228 -9.22436523 95.40405273 C-10.22814209 95.41452637 -11.23191895 95.425 -12.26611328 95.43579102 C-16.00273042 95.47208727 -19.73933206 95.49498814 -23.47607422 95.51391602 C-25.09100976 95.5239517 -26.70592724 95.53758325 -28.32080078 95.55493164 C-30.64677398 95.57928738 -32.97250618 95.59056021 -35.29858398 95.59936523 C-36.01648605 95.60968781 -36.73438812 95.62001038 -37.4740448 95.63064575 C-42.50871042 95.63176366 -46.15006558 95.2060527 -50.00976562 91.85302734 C-51.89126568 88.05939377 -51.67221868 84.40026149 -51.65795898 80.22045898 C-51.66320084 79.3279393 -51.66844269 78.43541962 -51.67384338 77.51585388 C-51.68025922 75.63053425 -51.67893225 73.74517457 -51.67041016 71.85986328 C-51.6619049 68.97998515 -51.69065906 66.10209409 -51.72241211 63.22241211 C-51.72402441 61.38842833 -51.72344604 59.55444104 -51.72045898 57.72045898 C-51.73169296 56.86198868 -51.74292694 56.00351837 -51.75450134 55.11903381 C-51.70740568 51.06478775 -51.53700693 48.91617895 -49.38085938 45.38427734 C-45.44712347 41.77208082 -41.31542853 42.27171526 -36.27514648 42.30639648 C-35.50252975 42.30781143 -34.72991302 42.30922638 -33.93388367 42.3106842 C-31.46817134 42.31627807 -29.00255008 42.32882941 -26.53686523 42.34155273 C-24.8643405 42.34656853 -23.19181435 42.3511313 -21.51928711 42.35522461 C-17.42094477 42.36624549 -13.32267044 42.38350589 -9.22436523 42.40405273 C-9.24007568 40.89838745 -9.24007568 40.89838745 -9.25610352 39.36230469 C-9.29239977 35.62568755 -9.31530064 31.8890859 -9.33422852 28.15234375 C-9.3442642 26.53740821 -9.35789575 24.92249073 -9.37524414 23.30761719 C-9.39959988 20.98164398 -9.41087271 18.65591178 -9.41967773 16.32983398 C-9.43000031 15.61193192 -9.44032288 14.89402985 -9.45095825 14.15437317 C-9.45203199 9.31867235 -9.01543691 5.60864772 -5.91493225 1.79229736 C-3.79900788 0.0547616 -2.71289024 0.01967045 0 0 Z M9.77563477 18.40405273 C9.72665039 20.80041992 9.67766602 23.19678711 9.62719727 25.66577148 C9.5731318 27.99582978 9.51584627 30.32578829 9.45825195 32.65576172 C9.42005405 34.27059444 9.38518532 35.88550957 9.35375977 37.50048828 C9.30790867 39.82671491 9.24994893 42.15237866 9.18969727 44.47827148 C9.17237045 45.55512459 9.17237045 45.55512459 9.1546936 46.6537323 C9.00391481 51.81632027 8.49942608 55.68026142 4.77563477 59.40405273 C1.91126652 59.64987117 -0.86339663 59.77774655 -3.73217773 59.81811523 C-4.99310745 59.84716446 -4.99310745 59.84716446 -6.2795105 59.87680054 C-8.96935827 59.93666932 -11.65924867 59.98301045 -14.34936523 60.02905273 C-16.17099867 60.06722584 -17.99261394 60.10627717 -19.81420898 60.14624023 C-24.28416748 60.24403331 -28.753928 60.32354249 -33.22436523 60.40405273 C-33.22436523 66.01405273 -33.22436523 71.62405273 -33.22436523 77.40405273 C-30.51604492 77.44143555 -27.80772461 77.47881836 -25.01733398 77.51733398 C-22.39607639 77.56353739 -19.77496228 77.61477527 -17.15380859 77.66650391 C-15.33130604 77.69977014 -13.50870004 77.7277968 -11.68603516 77.75048828 C-9.06685274 77.78400355 -6.44861976 77.83631625 -3.82983398 77.89233398 C-3.01411423 77.89872391 -2.19839447 77.90511383 -1.35795593 77.91169739 C4.36536236 78.06065076 4.36536236 78.06065076 6.47320557 79.82493591 C9.58500786 83.59780845 8.9841251 88.56321316 9.09204102 93.23217773 C9.11282211 93.98118347 9.13360321 94.73018921 9.15501404 95.50189209 C9.22020564 97.88585561 9.2792526 100.26992585 9.33813477 102.65405273 C9.38134892 104.27385527 9.42496413 105.89364717 9.46899414 107.51342773 C9.57660787 111.47686178 9.67590641 115.44038108 9.77563477 119.40405273 C15.05563477 119.40405273 20.33563477 119.40405273 25.77563477 119.40405273 C25.79021729 118.26863037 25.8047998 117.13320801 25.81982422 115.96337891 C25.87777152 111.75309665 25.95500418 107.54335124 26.03808594 103.33349609 C26.07135217 101.51099354 26.09937883 99.68838754 26.12207031 97.86572266 C26.15558558 95.24654024 26.20789828 92.62830726 26.26391602 90.00952148 C26.2735009 88.78594185 26.2735009 88.78594185 26.28327942 87.53764343 C26.43098328 81.86233564 26.43098328 81.86233564 28.06335449 79.69177246 C31.05989845 77.43822272 34.76859101 77.92063252 38.38110352 77.89233398 C39.22030838 77.87438278 40.05951324 77.85643158 40.92414856 77.8379364 C43.60375956 77.7837671 46.28319179 77.749917 48.96313477 77.71655273 C50.78021697 77.68338544 52.59727557 77.64889633 54.41430664 77.61303711 C58.86810934 77.52554807 63.32109318 77.46553855 67.77563477 77.40405273 C67.77563477 71.79405273 67.77563477 66.18405273 67.77563477 60.40405273 C65.06731445 60.36666992 62.35899414 60.32928711 59.56860352 60.29077148 C56.94734592 60.24456808 54.32623181 60.1933302 51.70507812 60.14160156 C49.88257557 60.10833533 48.05996957 60.08030867 46.23730469 60.05761719 C43.61812227 60.02410192 40.99988929 59.97178922 38.38110352 59.91577148 C37.56538376 59.90938156 36.749664 59.90299164 35.90922546 59.89640808 C30.23391767 59.74870422 30.23391767 59.74870422 28.06335449 58.11633301 C25.80980475 55.11978905 26.29221455 51.41109649 26.26391602 47.79858398 C26.24596481 46.95937912 26.22801361 46.12017426 26.20951843 45.25553894 C26.15534913 42.57592794 26.12149904 39.89649571 26.08813477 37.21655273 C26.05496747 35.39947053 26.02047836 33.58241193 25.98461914 31.76538086 C25.89961904 27.31173369 25.83283975 22.85814014 25.77563477 18.40405273 C20.49563477 18.40405273 15.21563477 18.40405273 9.77563477 18.40405273 Z " fill="white" transform="translate(119.224365234375,99.595947265625)"/>
<path d="M0 0 C8.5040449 7.00939458 13.86962664 14.33209765 15.19140625 25.51953125 C15.58435861 36.20530016 12.73520897 45.06774924 5.87109375 53.3046875 C-1.1565473 60.15897118 -9.69183963 63.58555795 -19.4375 63.6875 C-29.58586256 63.52846591 -37.84259745 60.4362657 -45.1875 53.3125 C-47.51494225 50.46784837 -49.40918539 47.52565412 -51.1875 44.3125 C-51.52910156 43.70921875 -51.87070312 43.1059375 -52.22265625 42.484375 C-55.7046776 35.03446885 -55.3890208 25.64885286 -53.23828125 17.88671875 C-49.08669854 7.37024898 -43.07050158 1.61045983 -33.1875 -3.6875 C-22.63486781 -8.13174398 -9.27755949 -6.54781602 0 0 Z M-32.8046875 18.04296875 C-35.74728069 22.20748623 -36.99434176 25.96692225 -36.66796875 31.07421875 C-35.50667492 36.48414855 -32.54003115 40.75487441 -27.9375 43.8125 C-23.73972615 45.84309343 -19.74892895 46.19813827 -15.1875 45.3125 C-10.40984535 43.48078435 -7.17680904 40.92699069 -4.6875 36.4375 C-2.5801786 31.45485562 -2.46687463 27.38959666 -4.25 22.25 C-7.26274105 17.68229583 -10.94639197 14.05953601 -16.1875 12.3125 C-22.84076159 11.66021945 -28.19118878 13.10630224 -32.8046875 18.04296875 Z " fill="white" transform="translate(395.1875,190.6875)"/>
<path d="M0 0 C7.75261972 5.21782436 12.79156234 12.67660014 14.85546875 21.75 C15.9763774 33.80628493 14.26173589 43.42106851 6.61328125 52.93359375 C-0.56705165 60.35327108 -9.33716398 63.81438725 -19.51953125 64.1875 C-31.4491496 63.82641726 -39.04820679 59.3447922 -47.14453125 50.75 C-52.89983359 43.81412282 -54.72601899 35.34999199 -54.42578125 26.48046875 C-53.27617557 15.31971363 -47.93997823 7.35547794 -39.390625 0.29296875 C-27.18339169 -8.09286979 -12.404794 -7.23048102 0 0 Z M-33.58203125 19.4375 C-36.19845139 24.9843107 -36.75466753 29.50012247 -35.14453125 35.4375 C-32.20384626 40.30800951 -28.59861078 43.93197349 -23.14453125 45.75 C-17.1553307 46.33717652 -13.04972009 45.05567074 -8.14453125 41.75 C-3.75822239 37.13875222 -2.78276154 33.28760876 -2.86328125 27.09765625 C-3.46473337 22.07720176 -6.02557035 18.78708572 -9.70703125 15.375 C-17.9318838 9.89176496 -27.31010233 12.52229632 -33.58203125 19.4375 Z " fill="white" transform="translate(335.14453125,139.25)"/>
<path d="M0 0 C8.06232407 5.76262301 13.81386389 13.72111174 15.66796875 23.55859375 C16.685423 33.43166832 15.6390517 42.22362842 9.609375 50.32421875 C2.34560163 58.70266898 -4.88907928 63.53258348 -16 64.8828125 C-25.82074934 65.29378181 -34.2829584 62.73993749 -41.76953125 56.30859375 C-49.78299378 48.46234633 -53.32808438 41.05337946 -53.70703125 29.74609375 C-53.53970399 19.88424323 -50.23893571 11.67167446 -43.33203125 4.55859375 C-31.17044775 -5.63301424 -13.99212335 -8.64839785 0 0 Z M-32.14453125 19.55859375 C-35.44582326 24.08607994 -35.8851981 28.07911076 -35.33203125 33.55859375 C-33.50571655 38.93010757 -30.17541785 42.67874226 -25.33203125 45.55859375 C-20.77122193 47.00902781 -17.24173587 46.80529331 -12.64453125 45.55859375 C-7.77402174 42.61790876 -4.15005776 39.01267328 -2.33203125 33.55859375 C-1.74485473 27.5693932 -3.02636051 23.46378259 -6.33203125 18.55859375 C-10.99895241 14.11932728 -14.80951807 13.24643794 -21.0546875 13.34765625 C-25.92744594 13.79899237 -29.01788149 15.97764445 -32.14453125 19.55859375 Z " fill="white" transform="translate(394.33203125,87.44140625)"/>
<path d="M0 0 C8.78423993 4.93866563 15.42679913 12.13546796 18.35546875 21.77734375 C20.89337741 32.09631302 19.75801438 41.25826653 14.48046875 50.58984375 C9.32048282 58.25211201 2.28582563 63.91127238 -6.74609375 66.01171875 C-17.65166491 67.87756868 -27.45003735 66.06380885 -36.64453125 59.83984375 C-42.78375652 54.86277635 -47.41554215 48.11942423 -49.39453125 40.46484375 C-50.43319668 28.24240866 -49.73227666 18.43961909 -41.70703125 8.65234375 C-30.86244244 -2.77789325 -14.60292977 -6.06118651 0 0 Z M-28.76953125 22.08984375 C-31.99915737 26.81006654 -31.86963556 30.84997458 -31.39453125 36.46484375 C-29.72105891 41.22102828 -27.53345583 43.63826111 -23.39453125 46.46484375 C-22.79640625 46.87734375 -22.19828125 47.28984375 -21.58203125 47.71484375 C-16.9077638 49.31744973 -12.75381621 48.94459138 -8.20703125 47.33984375 C-3.51035685 44.20872748 0.30722522 40.04729093 1.60546875 34.46484375 C1.97732784 28.9400801 0.9200989 25.29868706 -2.64453125 21.02734375 C-6.73281006 16.85613839 -9.43059791 15.65490182 -15.26953125 15.08984375 C-21.06671379 15.25391495 -24.88781021 17.7995205 -28.76953125 22.08984375 Z " fill="white" transform="translate(450.39453125,136.53515625)"/>
</svg>
