<?xml version="1.0" encoding="UTF-8"?>
<svg version="1.1" xmlns="http://www.w3.org/2000/svg" width="500" height="500">
<path d="M0 0 C2.00829124 -0.00299562 4.01658191 -0.00639908 6.02487183 -0.01017761 C11.45893376 -0.01898071 16.89297993 -0.02135417 22.3270483 -0.0219934 C25.7279953 -0.02270599 29.12893833 -0.02484427 32.52988434 -0.02749062 C44.41152703 -0.0367318 56.29315852 -0.04082704 68.17480469 -0.04003906 C79.22307935 -0.03943859 90.27130514 -0.04998762 101.31956744 -0.06578273 C110.82819177 -0.07888878 120.33680019 -0.08422167 129.84543347 -0.08358365 C135.51424967 -0.08332957 141.18302239 -0.08613111 146.85182953 -0.0967617 C152.18707575 -0.10649442 157.5222374 -0.10648661 162.85748672 -0.09924507 C164.80603536 -0.09820564 166.7545894 -0.10052361 168.70312881 -0.10660553 C188.94891417 -0.1656626 207.71338595 0.98045647 224.17675781 14.14526367 C225.41425781 15.07532227 225.41425781 15.07532227 226.67675781 16.02416992 C237.94714304 25.58638739 243.95355155 39.8265804 246.17675781 54.14526367 C246.41934383 57.37479514 246.43173199 60.5802144 246.40380859 63.81762695 C246.40410065 64.72616928 246.4043927 65.63471161 246.4046936 66.57078552 C246.40331442 69.53581727 246.38782056 72.50058902 246.37207031 75.46557617 C246.36833515 77.53636538 246.36549056 79.60715638 246.36349487 81.677948 C246.35589803 87.09974133 246.33628385 92.52142568 246.31408691 97.94317627 C246.29354299 103.48708625 246.28447495 109.03101401 246.27441406 114.57495117 C246.25303391 125.43176961 246.21894616 136.28850754 246.17675781 147.14526367 C246.9555278 147.29382813 247.73429779 147.44239258 248.53666687 147.59545898 C267.74185902 151.59498207 286.78556861 164.39987473 302.17675781 176.14526367 C302.94632812 176.72791992 303.71589844 177.31057617 304.50878906 177.91088867 C317.58825531 188.53956736 326.28966693 204.35483491 328.05175781 221.06323242 C329.11301037 238.73972033 321.18903938 253.04977875 310.05175781 266.14526367 C296.05918408 281.16739132 277.27866877 290.88710158 258.47753906 298.52026367 C256.83622009 299.19508789 256.83622009 299.19508789 255.16174316 299.88354492 C252.5022134 300.97612421 249.84060434 302.06326227 247.17675781 303.14526367 C247.17455797 304.16042352 247.17455797 304.16042352 247.17231369 305.19609165 C247.13513152 321.72498722 247.07596702 338.25364685 246.99285507 354.78237247 C246.95318192 362.77581648 246.92073028 370.76916371 246.90576172 378.76269531 C246.89268398 385.73641516 246.86556506 392.709921 246.82214475 399.68352026 C246.79966622 403.37009588 246.78383884 407.05640893 246.78487396 410.74305916 C246.78426711 434.04243096 245.83526604 454.12890488 229.17675781 472.14526367 C211.05832885 489.28687299 189.89736763 490.29754445 166.36938477 490.29052734 C164.36271604 490.29352299 162.35604789 490.29692646 160.34938049 490.30070496 C154.91938352 490.30950837 149.48940232 490.31188154 144.05939889 490.31252074 C140.66045421 490.31323338 137.2615135 490.31537177 133.86256981 490.31801796 C121.98625816 490.32725965 110.1099577 490.33135437 98.23364258 490.33056641 C87.19334031 490.3299661 76.15308698 490.34051166 65.11279708 490.35631007 C55.60925262 490.36942092 46.10572408 490.37474881 36.60217065 490.374111 C30.93723495 490.37385703 25.27234277 490.37665201 19.60741615 490.38728905 C14.27462914 490.39702973 8.94192672 490.39700859 3.60913658 490.38977242 C1.66262055 490.38873392 -0.28390092 490.39104524 -2.23040771 490.39713287 C-26.15888258 490.46706403 -45.14263019 487.91264702 -63.51074219 471.02026367 C-80.70521484 452.9938004 -80.4158235 430.89199116 -80.22881794 407.46446228 C-80.2035197 403.75164778 -80.20144022 400.03881514 -80.19671631 396.32592773 C-80.18436886 389.32106018 -80.15166102 382.31644748 -80.11131835 375.31169128 C-80.06634153 367.32601866 -80.04454901 359.34033277 -80.02453661 351.35456467 C-79.98291921 334.95131605 -79.91273064 318.54832256 -79.82324219 302.14526367 C-80.77067795 301.99480591 -81.71811371 301.84434814 -82.69425964 301.68933105 C-85.32846436 301.23129562 -87.33175683 300.6865232 -89.74902344 299.61401367 C-90.80718262 299.14729248 -90.80718262 299.14729248 -91.88671875 298.67114258 C-92.62889648 298.33260254 -93.37107422 297.9940625 -94.13574219 297.64526367 C-95.31281738 297.11231689 -95.31281738 297.11231689 -96.51367188 296.56860352 C-122.09828819 284.83164797 -148.32819415 269.86636101 -158.82324219 242.14526367 C-163.74808813 228.60193733 -162.22258412 214.01315803 -156.35058594 201.04370117 C-141.8120352 173.45391946 -110.41791497 156.66279489 -81.82324219 147.14526367 C-81.16324219 147.14526367 -80.50324219 147.14526367 -79.82324219 147.14526367 C-79.83212463 146.01568237 -79.84100708 144.88610107 -79.85015869 143.72229004 C-79.93167226 133.01397766 -79.9914113 122.30572923 -80.03049088 111.5971756 C-80.05125832 106.09337816 -80.07937515 100.5898336 -80.125 95.08618164 C-80.16884786 89.76283831 -80.19246055 84.43973635 -80.20275116 79.1162262 C-80.21007328 77.09750068 -80.22436895 75.07878656 -80.24616241 73.06016541 C-80.45292678 53.09247122 -77.95609553 34.7895084 -63.8425293 19.56469727 C-58.74232668 14.37251061 -53.31230054 10.40032703 -46.82324219 7.14526367 C-45.66308594 6.56325195 -45.66308594 6.56325195 -44.47949219 5.96948242 C-30.32079315 -0.69771319 -15.30775498 -0.00456164 0 0 Z M-33.88183594 48.36401367 C-34.336875 49.11682617 -34.79191406 49.86963867 -35.26074219 50.64526367 C-35.73382813 51.39807617 -36.20691406 52.15088867 -36.69433594 52.92651367 C-39.13007368 57.71370758 -38.96229722 62.43859922 -38.9434967 67.71258545 C-38.94435113 68.5857998 -38.94520555 69.45901415 -38.94608587 70.35868955 C-38.94773531 73.28984699 -38.94222803 76.22094742 -38.93676758 79.15209961 C-38.93648557 81.25118509 -38.93664372 83.35027066 -38.93721008 85.44935608 C-38.93749751 91.15349136 -38.93160963 96.8576057 -38.92463613 102.56173611 C-38.91839346 108.52083162 -38.91779806 114.4799276 -38.91661072 120.43902588 C-38.91350011 131.72596609 -38.90529034 143.01289663 -38.89526123 154.29983258 C-38.88409173 167.14853086 -38.87858753 179.9972296 -38.87356579 192.84593153 C-38.86310751 219.27904761 -38.84551327 245.7121551 -38.82324219 272.14526367 C-34.88263111 272.97192404 -30.94139158 273.79551644 -26.99958801 274.61647224 C-25.66333916 274.89519694 -24.32725404 275.17470799 -22.99134827 275.4550724 C-13.01608138 277.54778717 -3.05785727 279.38046636 7.04345703 280.73413086 C9.26785577 281.03248235 11.48982399 281.34583401 13.71191406 281.66088867 C21.91004848 282.86019678 21.91004848 282.86019678 30.17675781 283.14526367 C27.02593987 279.34560334 23.83682858 275.73973595 20.27441406 272.32104492 C19.61248047 271.68489258 18.95054687 271.04874023 18.26855469 270.39331055 C16.89549862 269.08368729 15.51504316 267.78178533 14.12792969 266.48706055 C13.47501953 265.85477539 12.82210937 265.22249023 12.14941406 264.57104492 C11.55394775 264.00812744 10.95848145 263.44520996 10.3449707 262.86523438 C9.17675781 261.14526367 9.17675781 261.14526367 9.44747925 259.21531677 C10.65897736 255.77648621 13.40010495 253.55856149 15.96191406 251.06713867 C16.53759628 250.49570129 17.1132785 249.92426392 17.70640564 249.33551025 C19.543761 247.51492565 21.39127913 245.705058 23.23925781 243.89526367 C24.48798919 242.66158114 25.7360445 241.42721389 26.98339844 240.19213867 C30.04006801 237.16851712 33.10589307 234.15446446 36.17675781 231.14526367 C41.03454132 235.20478243 45.64046366 239.44372435 50.13769531 243.89746094 C50.79381302 244.54379486 51.44993073 245.19012878 52.12593079 245.85604858 C54.27098803 247.97146404 56.41200544 250.09088922 58.55175781 252.21166992 C59.28576813 252.93910841 60.01977844 253.6665469 60.77603149 254.41602898 C64.64923016 258.25679513 68.51845968 262.10151738 72.38525391 265.94873047 C75.58587697 269.13144646 78.79482648 272.3054021 82.01123047 275.47216797 C85.90340381 279.3043648 89.78084833 283.15088414 93.64801025 287.00831413 C95.12296955 288.47469368 96.60307278 289.93591765 98.08831787 291.39187813 C100.15676677 293.42166819 102.20574211 295.4693193 104.25097656 297.52246094 C105.17962273 298.42110619 105.17962273 298.42110619 106.12702942 299.33790588 C110.08482349 303.36516659 110.08482349 303.36516659 110.46730042 306.61062622 C108.47599781 310.52156272 105.57150723 313.27156828 102.45385742 316.32226562 C101.75145432 317.02525284 101.04905121 317.72824005 100.32536316 318.45252991 C98.00263182 320.77247582 95.66605645 323.07793478 93.32910156 325.38354492 C91.71540291 326.98978289 90.10258546 328.59690659 88.49061584 330.20487976 C84.24639076 334.43383526 79.99029054 338.6506412 75.73162842 342.86505127 C71.38776025 347.16799593 67.05519896 351.48229181 62.72167969 355.7956543 C54.21775036 364.25668927 45.70123595 372.70493551 37.17675781 381.14526367 C36.06651658 380.19902247 34.95704832 379.25187429 33.84790039 378.30435181 C33.22998123 377.77700754 32.61206207 377.24966328 31.97541809 376.70633888 C28.03325891 373.28489958 24.33466964 369.60623987 20.62158203 365.94018555 C19.64927518 364.98463694 18.67161038 364.0345131 17.68896484 363.08959961 C16.25639807 361.71149405 14.84125684 360.31534537 13.42675781 358.91870117 C12.58628906 358.09805176 11.74582031 357.27740234 10.87988281 356.43188477 C9.17675781 354.14526367 9.17675781 354.14526367 9.0769043 352.19946289 C10.7139686 349.14191372 13.06043531 346.8952215 15.52441406 344.50463867 C16.05570419 343.97759338 16.58699432 343.4505481 17.13438416 342.90753174 C18.82908606 341.2295918 20.53392998 339.56239639 22.23925781 337.89526367 C23.39163527 336.75793623 24.54333633 335.61992301 25.69433594 334.48120117 C28.51402966 331.69454376 31.3428637 328.91747575 34.17675781 326.14526367 C30.59220151 323.97703604 27.28307921 323.66148386 23.14941406 323.25073242 C21.71595879 323.10089944 20.28252886 322.95082391 18.84912109 322.80053711 C17.72089935 322.68639465 17.72089935 322.68639465 16.56988525 322.56994629 C2.65038106 321.15339023 -11.08813672 319.26600192 -24.84643555 316.72021484 C-26.5171814 316.41241089 -26.5171814 316.41241089 -28.22167969 316.09838867 C-29.1876709 315.914375 -30.15366211 315.73036133 -31.14892578 315.54077148 C-33.75516693 315.1553314 -36.19402024 315.11740409 -38.82324219 315.14526367 C-38.89342974 330.13158084 -38.94627801 345.11788524 -38.9786787 360.10433197 C-38.99412509 367.06334438 -39.01517172 374.02225446 -39.04956055 380.98120117 C-39.08273944 387.69852605 -39.10010208 394.41572272 -39.10787392 401.13313293 C-39.11341164 403.69433769 -39.12422544 406.25553671 -39.14043236 408.81669617 C-39.16224838 412.40746571 -39.16520728 415.99779776 -39.16381836 419.58862305 C-39.17460419 420.64454651 -39.18539001 421.70046997 -39.19650269 422.78839111 C-39.16576756 430.14455747 -38.03893282 435.53450857 -34.13574219 441.89526367 C-28.4831703 447.39506335 -22.4667513 448.73839742 -14.79077148 448.65319824 C-13.91570041 448.6594382 -13.04062933 448.66567817 -12.13904095 448.67210722 C-9.2249018 448.68798335 -6.31160537 448.6754541 -3.39746094 448.6628418 C-1.30090855 448.6682653 0.79564002 448.67538924 2.8921814 448.68408203 C8.57397715 448.702291 14.25548183 448.69525773 19.93728256 448.68256569 C25.88861617 448.67242554 31.83992516 448.6818342 37.79125977 448.68811035 C47.7847134 448.69538377 57.77804871 448.68580698 67.77148438 448.66674805 C79.31864943 448.64497998 90.86553195 448.65203156 102.41269016 448.67405367 C112.33393805 448.69221628 122.25510098 448.69476175 132.17636013 448.68429899 C138.09879117 448.67806884 144.02108949 448.6772154 149.94351196 448.69044495 C155.51192041 448.70201524 161.07996525 448.69395579 166.6483345 448.67086792 C168.68969749 448.66558718 170.73109117 448.66708369 172.77244186 448.67591858 C175.56346749 448.68688266 178.35333487 448.67309998 181.14428711 448.65319824 C181.94819036 448.66212113 182.7520936 448.67104402 183.58035755 448.68023729 C190.31281279 448.58739975 195.68218166 446.63983982 200.48925781 441.83276367 C205.04483835 434.57757985 205.60265235 429.0653538 205.51733398 420.61035156 C205.51777206 419.46816162 205.51821014 418.32597168 205.5186615 417.14916992 C205.51657802 413.38857701 205.49326693 409.62843458 205.46972656 405.86791992 C205.46412906 403.25475813 205.45985969 400.64159319 205.4568634 398.02842712 C205.44756048 391.86266326 205.4229707 385.69706006 205.39281493 379.53136677 C205.35921607 372.50838619 205.34277117 365.4853977 205.32772863 358.46235669 C205.2964194 344.02324302 205.24369327 329.5842556 205.17675781 315.14526367 C203.60489263 315.29676295 202.03318684 315.44991641 200.46154785 315.60374451 C199.586287 315.68885001 198.71102615 315.77395552 197.80924225 315.86163998 C193.85600665 316.28756131 189.94339592 316.91315652 186.02050781 317.55541992 C184.32133404 317.82588491 182.62211384 318.0960584 180.92285156 318.3659668 C178.2961577 318.78624763 175.66990759 319.20887996 173.04443359 319.63671875 C170.47501893 320.05407463 167.90419158 320.46162496 165.33300781 320.86791992 C164.56291382 320.99602554 163.79281982 321.12413116 162.99938965 321.25611877 C157.1999011 322.1627282 152.21273453 322.14526367 146.17675781 322.14526367 C144.85675781 308.94526367 143.53675781 295.74526367 142.17675781 282.14526367 C147.45675781 281.81526367 152.73675781 281.48526367 158.17675781 281.14526367 C161.14814344 280.76656942 164.03703269 280.37146648 166.97363281 279.84057617 C168.06227631 279.65360672 168.06227631 279.65360672 169.1729126 279.46286011 C170.6753907 279.20301587 172.17717936 278.93915096 173.67822266 278.67114258 C175.93781225 278.26829284 178.19951689 277.87965865 180.46191406 277.49291992 C181.94513064 277.23462896 183.42820886 276.97554193 184.91113281 276.71557617 C185.56458679 276.60295441 186.21804077 276.49033264 186.89129639 276.3742981 C191.12293888 275.61261297 195.27741984 274.64221585 199.44683838 273.59054565 C200.5215955 273.32000807 201.59635262 273.04947048 202.70367813 272.77073479 C203.51979443 272.56432932 204.33591072 272.35792385 205.17675781 272.14526367 C205.27022253 244.39859902 205.34074761 216.65195798 205.3840065 188.90516758 C205.40462673 176.02168577 205.43273722 163.13830181 205.47851562 150.25488281 C205.51839966 139.02495872 205.54419454 127.79510549 205.55311179 116.56511253 C205.55832383 110.619573 205.57056318 104.6742362 205.59967804 98.72876167 C205.62687165 93.13014633 205.63519471 87.53181683 205.62918854 81.93314171 C205.630287 79.8808957 205.63821717 77.82863991 205.65357971 75.77645111 C205.67356924 72.96789343 205.66866429 70.16040589 205.65777588 67.3518219 C205.67525293 66.14215086 205.67525293 66.14215086 205.69308305 64.90804201 C205.62300549 58.19112508 203.83149151 51.95795657 199.14160156 46.98901367 C198.47257813 46.54557617 197.80355469 46.10213867 197.11425781 45.64526367 C196.44265625 45.18120117 195.77105469 44.71713867 195.07910156 44.23901367 C186.12724082 39.09215329 169.22839848 40.52503729 159.17675781 42.14526367 C154.82179965 44.16425679 152.9071858 47.13359999 150.31738281 51.07885742 C146.2454745 56.91179178 139.01624283 59.68361477 132.17675781 61.14526367 C130.80317924 61.237817 129.42596905 61.28408636 128.04930115 61.29243469 C127.23511215 61.29959 126.42092316 61.3067453 125.58206177 61.31411743 C124.2549971 61.31815079 124.2549971 61.31815079 122.90112305 61.32226562 C121.96235825 61.32883682 121.02359344 61.33540802 120.05638123 61.34217834 C116.94937048 61.36188789 113.8424081 61.37357081 110.73535156 61.38354492 C109.13966182 61.38965821 109.13966182 61.38965821 107.51173592 61.395895 C101.87753621 61.41674904 96.2433608 61.43105181 90.60913086 61.44042969 C84.80784475 61.45147281 79.00694444 61.48585069 73.20579433 61.52560139 C68.73001932 61.55183237 64.25433517 61.56012745 59.77849007 61.56371117 C57.64120958 61.56856293 55.50393277 61.58013636 53.36672783 61.59874916 C38.8315102 61.71743407 26.42535476 61.53425168 15.17675781 51.14526367 C12.50862628 48.35479423 9.91142952 45.61460708 8.17675781 42.14526367 C3.76601078 42.04564638 -0.64412314 41.97344698 -5.05566406 41.92553711 C-6.55317608 41.90554449 -8.05061127 41.87834069 -9.54785156 41.84350586 C-22.93885012 41.32836216 -22.93885012 41.32836216 -33.88183594 48.36401367 Z M-90.94824219 196.20776367 C-91.71362305 196.61534912 -92.47900391 197.02293457 -93.26757812 197.44287109 C-98.92013252 200.5159821 -103.93837824 203.95028939 -108.82324219 208.14526367 C-109.71011719 208.76401367 -110.59699219 209.38276367 -111.51074219 210.02026367 C-115.95941332 214.10823174 -119.29835901 218.69580884 -120.57324219 224.64526367 C-118.37575457 234.90020588 -109.6976404 242.03133445 -101.26074219 247.50463867 C-99.97325163 248.30824343 -98.6815608 249.1051582 -97.38574219 249.89526367 C-96.78963135 250.26006836 -96.19352051 250.62487305 -95.5793457 251.00073242 C-90.41451135 254.03584563 -85.54712514 255.85571049 -79.82324219 258.14526367 C-79.82324219 236.36526367 -79.82324219 214.58526367 -79.82324219 192.14526367 C-84.18254998 192.14526367 -87.15998107 194.17810551 -90.94824219 196.20776367 Z M246.17675781 192.14526367 C246.17675781 213.92526367 246.17675781 235.70526367 246.17675781 258.14526367 C260.85806457 252.27274097 279.36529121 243.68392185 286.17675781 228.14526367 C286.89754214 223.55026361 286.22351773 220.6661021 283.86425781 216.77026367 C276.10798195 206.12793168 261.75979285 196.33230146 249.17675781 192.14526367 C248.18675781 192.14526367 247.19675781 192.14526367 246.17675781 192.14526367 Z " fill="white" transform="translate(166.8232421875,4.854736328125)"/>
<path d="M0 0 C1.98 0 3.96 0 6 0 C5.13835307 4.56836963 2.44739226 6.9343915 -0.78515625 10.078125 C-1.36083847 10.64956238 -1.93652069 11.22099976 -2.52964783 11.80975342 C-4.36700319 13.63033802 -6.21452132 15.44020568 -8.0625 17.25 C-9.31123138 18.48368253 -10.55928669 19.71804978 -11.80664062 20.953125 C-14.8633102 23.97674655 -17.92913526 26.99079921 -21 30 C-21.33 29.01 -21.66 28.02 -22 27 C-13.75 18.75 -5.5 10.5 3 2 C2.01 1.34 1.02 0.68 0 0 Z " fill="white" transform="translate(197,329)"/>
</svg>
